<?xml version="1.0" encoding="UTF-8" standalone="no"?>
<!-- Created with Inkscape (http://www.inkscape.org/) -->

<svg
   xmlns:dc="http://purl.org/dc/elements/1.1/"
   xmlns:cc="http://creativecommons.org/ns#"
   xmlns:rdf="http://www.w3.org/1999/02/22-rdf-syntax-ns#"
   xmlns:svg="http://www.w3.org/2000/svg"
   xmlns="http://www.w3.org/2000/svg"
   xmlns:xlink="http://www.w3.org/1999/xlink"
   xmlns:sodipodi="http://sodipodi.sourceforge.net/DTD/sodipodi-0.dtd"
   xmlns:inkscape="http://www.inkscape.org/namespaces/inkscape"
   width="16"
   height="16"
   id="svg3049"
   version="1.1"
   inkscape:version="0.92.2 5c3e80d, 2017-08-06"
   sodipodi:docname="system-standby.svg"
   inkscape:export-filename="/home/uri/.kde/share/icons/NITRUX-KDE/16x16/actions/view-right-new.png"
   inkscape:export-xdpi="30"
   inkscape:export-ydpi="30">
  <defs
     id="defs3051">
    <style
       type="text/css"
       id="current-color-scheme">
      .ColorScheme-Text {
        color:#4d4d4d;
      }
      .ColorScheme-Background {
        color:#eff0f1;
      }
      .ColorScheme-Highlight {
        color:#3daee9;
      }
      .ColorScheme-ViewText {
        color:#31363b;
      }
      .ColorScheme-ViewBackground {
        color:#fcfcfc;
      }
      .ColorScheme-ViewHover {
        color:#93cee9;
      }
      .ColorScheme-ViewFocus{
        color:#3daee9;
      }
      .ColorScheme-ButtonText {
        color:#31363b;
      }
      .ColorScheme-ButtonBackground {
        color:#eff0f1;
      }
      .ColorScheme-ButtonHover {
        color:#93cee9;
      }
      .ColorScheme-ButtonFocus{
        color:#3daee9;
      }
      </style>
    <linearGradient
       gradientTransform="translate(0,-1.9999941)"
       inkscape:collect="always"
       xlink:href="#linearGradient4021-3"
       id="linearGradient4123"
       gradientUnits="userSpaceOnUse"
       x1="3"
       y1="1045.3622"
       x2="15"
       y2="1045.3622" />
    <linearGradient
       id="linearGradient4021-3">
      <stop
         id="stop4023-0"
         offset="0"
         style="stop-color:#b3b3b3;stop-opacity:1;" />
      <stop
         id="stop4025-2"
         offset="1"
         style="stop-color:currentColor;stop-opacity:1;"
         class="ColorScheme-Text" />
    </linearGradient>
    <clipPath
       id="presentation_clip_path"
       clipPathUnits="userSpaceOnUse">
      <rect
         x="0"
         y="0"
         width="560"
         height="560"
         id="rect7" />
    </clipPath>
  </defs>
  <sodipodi:namedview
     id="base"
     pagecolor="#ffffff"
     bordercolor="#666666"
     borderopacity="1.0"
     inkscape:pageopacity="0.0"
     inkscape:pageshadow="2"
     inkscape:zoom="22.627417"
     inkscape:cx="-3.6815567"
     inkscape:cy="10.622101"
     inkscape:document-units="px"
     inkscape:current-layer="layer1-6"
     showgrid="true"
     fit-margin-top="0"
     fit-margin-left="0"
     fit-margin-right="0"
     fit-margin-bottom="0"
     inkscape:window-width="1920"
     inkscape:window-height="1168"
     inkscape:window-x="0"
     inkscape:window-y="0"
     inkscape:window-maximized="1"
     inkscape:showpageshadow="false"
     borderlayer="true"
     inkscape:snap-bbox="true"
     inkscape:snap-global="true">
    <inkscape:grid
       type="xygrid"
       id="grid4085" />
    <sodipodi:guide
       position="2.0000044,14.00003"
       orientation="12,0"
       id="guide4075"
       inkscape:locked="false" />
    <sodipodi:guide
       position="2.0000044,2.0000296"
       orientation="0,12"
       id="guide4077"
       inkscape:locked="false" />
    <sodipodi:guide
       position="14,9"
       orientation="-12,0"
       id="guide4079"
       inkscape:locked="false" />
    <sodipodi:guide
       position="14.000004,14.00003"
       orientation="0,-12"
       id="guide4081"
       inkscape:locked="false" />
  </sodipodi:namedview>
  <metadata
     id="metadata3054">
    <rdf:RDF>
      <cc:Work
         rdf:about="">
        <dc:format>image/svg+xml</dc:format>
        <dc:type
           rdf:resource="http://purl.org/dc/dcmitype/StillImage" />
        <dc:title />
      </cc:Work>
    </rdf:RDF>
  </metadata>
  <g
     inkscape:label="Capa 1"
     inkscape:groupmode="layer"
     id="layer1"
     transform="translate(-421.71429,-531.79074)">
    <g
       transform="matrix(0.75,0,0,0.74999813,421.46429,-241.22897)"
       id="layer1-0"
       inkscape:label="Capa 1">
      <g
         transform="translate(6.2937501e-7,-2.041003e-4)"
         id="layer1-6"
         inkscape:label="Capa 1">
        <g
           transform="matrix(0.03860356,0,0,0.03672658,0.37384062,1030.8744)"
           id="g44">
          <g
             id="id2"
             class="Master_Slide">
            <g
               id="bg-id2"
               class="Background" />
            <g
               id="bo-id2"
               class="BackgroundObjects" />
          </g>
        </g>
        <g
           transform="matrix(0.03860356,0,0,0.03672658,0.37384062,1030.8744)"
           class="SlideGroup"
           id="g49">
          <g
             id="g51">
            <g
               id="id1"
               class="Slide"
               clip-path="url(#presentation_clip_path)">
              <g
                 class="Page"
                 id="g54">
                <g
                   class="com.sun.star.drawing.ClosedBezierShape"
                   id="g56">
                  <g
                     id="id3">
                    <rect
                       style="fill:none;stroke:none"
                       class="BoundingBox"
                       x="67"
                       y="137"
                       width="294"
                       height="367"
                       id="rect59" />
                    <path
                       style="fill:none;stroke:#4c4c4c;stroke-width:50;stroke-linejoin:miter"
                       inkscape:connector-curvature="0"
                       d="m 102,377 c 29,80 117,120 198,91 L 328,458 223,169 194,180 C 114,210 73,297 102,377 Z"
                       id="path61" />
                  </g>
                </g>
                <g
                   class="com.sun.star.drawing.CustomShape"
                   id="g63">
                  <g
                     id="id4">
                    <rect
                       style="fill:none;stroke:none"
                       class="BoundingBox"
                       x="282"
                       y="67"
                       width="201"
                       height="198"
                       id="rect66" />
                    <path
                       style="fill:#4c4c4c;stroke:none"
                       inkscape:connector-curvature="0"
                       d="m 381,68 -23,74 -76,0 62,47 -24,75 61,-46 62,46 -24,-75 63,-47 -77,0 -24,-74 0,0 z m -99,0 0,0 z m 200,196 0,0 z"
                       id="path68" />
                  </g>
                </g>
              </g>
            </g>
          </g>
        </g>
        <path
           style="fill:#ffffff;stroke-width:0.04419417"
           d="M 11.949923,6.7395657 C 11.488093,6.4136794 11.088082,6.1470074 11.061008,6.1469614 11.033935,6.1469172 10.649936,6.4075616 10.207678,6.7261753 9.7654203,7.0447888 9.3950775,7.2969775 9.3846942,7.2865941 9.3743109,7.2762107 9.5047454,6.8519886 9.6745487,6.3438781 9.8443519,5.8357675 9.9832818,5.3954931 9.9832818,5.3654906 c 0,-0.030003 -0.3792875,-0.3288458 -0.8428613,-0.6640961 L 8.2975593,4.0918485 9.3516989,4.0800365 10.405839,4.0682245 10.734551,3.07548 l 0.328712,-0.9927446 0.338291,0.9824597 0.338291,0.9824598 1.072751,0.022097 1.072752,0.022097 -0.868276,0.615887 c -0.477552,0.3387377 -0.868276,0.6307 -0.868276,0.6488049 0,0.018105 0.148471,0.4658727 0.329935,0.9950396 0.181464,0.5291666 0.325647,0.9662581 0.320407,0.9713139 -0.0052,0.00506 -0.387386,-0.2574417 -0.849215,-0.5833286 z"
           id="path37"
           inkscape:connector-curvature="0"
           transform="matrix(1.3333333,0,0,1.3333367,0.3333327,1030.6957)" />
        <path
           style="fill:#ffffff;stroke-width:0.04419417"
           d="M 6.712913,13.940593 C 4.7896411,13.765779 3.0780229,12.563118 2.3857067,10.9001 2.1089851,10.235385 2.0502845,9.9124524 2.0518963,9.0636931 2.0530353,8.4639136 2.0709735,8.2258082 2.1318032,8.0030329 2.5450507,6.4896074 3.4925102,5.3473082 4.8788548,4.6910654 5.2423698,4.5189912 6.8832961,3.9139187 6.9075605,3.9430038 c 0.00984,0.011793 3.3866945,8.8474752 3.5028405,9.1653262 0.02322,0.06355 -1.7857824,0.666847 -2.2390803,0.746729 -0.4063641,0.07161 -1.1389055,0.114574 -1.4584077,0.08553 z M 8.2373671,12.469091 C 8.4316872,12.41535 8.5977114,12.364345 8.6063098,12.355746 8.6149082,12.347147 8.048228,10.83753 7.3470207,9.0010399 6.1871213,5.9632196 6.0641231,5.6641131 5.9837091,5.6857445 5.7305369,5.753848 4.974305,6.1716082 4.7140912,6.3871111 3.1501406,7.6823385 2.992596,9.9537907 4.3652946,11.416006 c 0.5396979,0.574894 1.1812855,0.936639 1.9726561,1.11224 0.4544725,0.100845 1.4308305,0.07044 1.8994164,-0.05915 z"
           id="path39"
           inkscape:connector-curvature="0"
           transform="matrix(1.3333333,0,0,1.3333367,0.3333327,1030.6957)" />
      </g>
    </g>
  </g>
</svg>
