<?xml version="1.0" encoding="UTF-8" standalone="no"?>
<!-- Created with Inkscape (http://www.inkscape.org/) -->

<svg
   xmlns:dc="http://purl.org/dc/elements/1.1/"
   xmlns:cc="http://creativecommons.org/ns#"
   xmlns:rdf="http://www.w3.org/1999/02/22-rdf-syntax-ns#"
   xmlns:svg="http://www.w3.org/2000/svg"
   xmlns="http://www.w3.org/2000/svg"
   xmlns:xlink="http://www.w3.org/1999/xlink"
   xmlns:sodipodi="http://sodipodi.sourceforge.net/DTD/sodipodi-0.dtd"
   xmlns:inkscape="http://www.inkscape.org/namespaces/inkscape"
   width="22"
   height="22"
   id="svg3760"
   version="1.1"
   inkscape:version="0.92.2 5c3e80d, 2017-08-06"
   sodipodi:docname="system-standby.svg">
  <defs
     id="defs3762">
    <style
       type="text/css"
       id="current-color-scheme">
      .ColorScheme-Text {
        color:#4d4d4d;
      }
      .ColorScheme-Background {
        color:#eff0f1;
      }
      .ColorScheme-Highlight {
        color:#3daee9;
      }
      .ColorScheme-ViewText {
        color:#31363b;
      }
      .ColorScheme-ViewBackground {
        color:#fcfcfc;
      }
      .ColorScheme-ViewHover {
        color:#93cee9;
      }
      .ColorScheme-ViewFocus{
        color:#3daee9;
      }
      .ColorScheme-ButtonText {
        color:#31363b;
      }
      .ColorScheme-ButtonBackground {
        color:#eff0f1;
      }
      .ColorScheme-ButtonHover {
        color:#93cee9;
      }
      .ColorScheme-ButtonFocus{
        color:#3daee9;
      }
      </style>
    <linearGradient
       y2="1045.3622"
       x2="15"
       y1="1045.3622"
       x1="3"
       gradientUnits="userSpaceOnUse"
       id="linearGradient4123"
       xlink:href="#linearGradient4021-3"
       inkscape:collect="always"
       gradientTransform="translate(0,-1.9999941)" />
    <linearGradient
       id="linearGradient4021-3">
      <stop
         style="stop-color:#b3b3b3;stop-opacity:1;"
         offset="0"
         id="stop4023-0" />
      <stop
         style="stop-color:currentColor;stop-opacity:1;"
         offset="1"
         id="stop4025-2"
         class="ColorScheme-Text" />
    </linearGradient>
    <clipPath
       id="presentation_clip_path"
       clipPathUnits="userSpaceOnUse">
      <rect
         x="0"
         y="0"
         width="780"
         height="780"
         id="rect7" />
    </clipPath>
  </defs>
  <sodipodi:namedview
     id="base"
     pagecolor="#ffffff"
     bordercolor="#666666"
     borderopacity="1.0"
     inkscape:pageopacity="0.0"
     inkscape:pageshadow="2"
     inkscape:zoom="23.678311"
     inkscape:cx="1.9714222"
     inkscape:cy="12.881802"
     inkscape:document-units="px"
     inkscape:current-layer="layer1"
     showgrid="true"
     fit-margin-top="0"
     fit-margin-left="0"
     fit-margin-right="0"
     fit-margin-bottom="0"
     inkscape:window-width="1920"
     inkscape:window-height="1168"
     inkscape:window-x="0"
     inkscape:window-y="0"
     inkscape:window-maximized="1"
     inkscape:showpageshadow="false"
     showguides="true"
     inkscape:snap-bbox="true"
     inkscape:object-nodes="true">
    <sodipodi:guide
       position="4.1796875e-06,21.999997"
       orientation="22,0"
       id="guide4116"
       inkscape:locked="false" />
    <sodipodi:guide
       position="4.1796875e-06,-2.6953124e-06"
       orientation="0,22"
       id="guide4118"
       inkscape:locked="false" />
    <sodipodi:guide
       position="22.000004,-2.6953124e-06"
       orientation="-22,0"
       id="guide4120"
       inkscape:locked="false" />
    <sodipodi:guide
       position="22.000004,21.999997"
       orientation="0,-22"
       id="guide4122"
       inkscape:locked="false" />
    <sodipodi:guide
       position="2.0000042,19.999997"
       orientation="18,0"
       id="guide4124"
       inkscape:locked="false" />
    <sodipodi:guide
       position="2.0000042,1.9999973"
       orientation="0,18"
       id="guide4126"
       inkscape:locked="false" />
    <sodipodi:guide
       position="20.000004,1.9999973"
       orientation="-18,0"
       id="guide4128"
       inkscape:locked="false" />
    <sodipodi:guide
       position="20.000004,19.999997"
       orientation="0,-18"
       id="guide4130"
       inkscape:locked="false" />
    <sodipodi:guide
       position="3.0000042,18.999997"
       orientation="16,0"
       id="guide4132"
       inkscape:locked="false" />
    <sodipodi:guide
       position="3.0000042,2.9999973"
       orientation="0,16"
       id="guide4134"
       inkscape:locked="false" />
    <sodipodi:guide
       position="19.000004,2.9999973"
       orientation="-16,0"
       id="guide4136"
       inkscape:locked="false" />
    <sodipodi:guide
       position="19.000004,18.999997"
       orientation="0,-16"
       id="guide4138"
       inkscape:locked="false" />
    <inkscape:grid
       type="xygrid"
       id="grid4140" />
  </sodipodi:namedview>
  <metadata
     id="metadata3765">
    <rdf:RDF>
      <cc:Work
         rdf:about="">
        <dc:format>image/svg+xml</dc:format>
        <dc:type
           rdf:resource="http://purl.org/dc/dcmitype/StillImage" />
        <dc:title />
      </cc:Work>
    </rdf:RDF>
  </metadata>
  <g
     inkscape:label="Capa 1"
     inkscape:groupmode="layer"
     id="layer1"
     transform="translate(-553.72253,-583.11926)">
    <g
       transform="matrix(0.0231534,0,0,0.02317646,555.65847,585.03821)"
       id="g44">
      <g
         id="id2"
         class="Master_Slide">
        <g
           id="bg-id2"
           class="Background" />
        <g
           id="bo-id2"
           class="BackgroundObjects" />
      </g>
    </g>
    <g
       transform="matrix(0.0231534,0,0,0.02317646,555.65847,585.03821)"
       class="SlideGroup"
       id="g49">
      <g
         id="g51">
        <g
           id="id1"
           class="Slide"
           clip-path="url(#presentation_clip_path)">
          <g
             class="Page"
             id="g54">
            <g
               class="com.sun.star.drawing.ClosedBezierShape"
               id="g56">
              <g
                 id="id3">
                <rect
                   style="fill:none;stroke:none"
                   class="BoundingBox"
                   x="46"
                   y="46"
                   width="691"
                   height="691"
                   id="rect59" />
                <path
                   style="fill:none;stroke:#4c4c4c;stroke-width:50;stroke-linejoin:miter"
                   inkscape:connector-curvature="0"
                   d="m 391,711 c 176,0 320,-144 320,-320 l 0,0 C 711,214 567,71 391,71 214,71 71,214 71,391 l 0,0 c 0,176 143,320 320,320 z"
                   id="path61" />
              </g>
            </g>
            <g
               class="com.sun.star.drawing.ClosedBezierShape"
               id="g63">
              <g
                 id="id4">
                <rect
                   style="fill:none;stroke:none"
                   class="BoundingBox"
                   x="193"
                   y="222"
                   width="294"
                   height="367"
                   id="rect66" />
                <path
                   style="fill:none;stroke:#4c4c4c;stroke-width:50;stroke-linejoin:miter"
                   inkscape:connector-curvature="0"
                   d="m 228,461 c 29,80 117,121 197,92 l 29,-10 -106,-289 -28,11 c -80,29 -121,116 -92,196 z"
                   id="path68" />
              </g>
            </g>
            <g
               class="com.sun.star.drawing.CustomShape"
               id="g70">
              <g
                 id="id5">
                <rect
                   style="fill:none;stroke:none"
                   class="BoundingBox"
                   x="408"
                   y="152"
                   width="201"
                   height="198"
                   id="rect73" />
                <path
                   style="fill:#4c4c4c;stroke:none"
                   inkscape:connector-curvature="0"
                   d="m 507,153 -23,74 -76,0 62,47 -24,75 61,-46 62,46 -24,-75 63,-47 -77,0 -24,-74 0,0 z m -99,0 0,0 z m 200,196 0,0 z"
                   id="path75" />
              </g>
            </g>
          </g>
        </g>
      </g>
    </g>
    <path
       style="fill:#ffffff;stroke-width:0.04223274"
       d="M 10.403584,18.930537 C 7.0433049,18.710661 4.0915766,16.231246 3.2671695,12.936038 3.032546,11.998233 2.9668073,10.781045 3.1009541,9.8584679 3.484953,7.2175658 5.1336352,4.9633497 7.5358128,3.7947589 8.0253658,3.5566052 8.7967688,3.2935363 9.3344672,3.1813698 13.352074,2.3432783 17.325217,4.6578741 18.575706,8.5649491 c 1.27497,3.9835649 -0.77446,8.2841219 -4.686204,9.8336059 -1.092134,0.432605 -2.266266,0.611788 -3.485918,0.531982 z m 1.459677,-1.156317 c 0.837491,-0.11151 1.476591,-0.312961 2.237405,-0.705252 2.014434,-1.038683 3.38668,-2.982643 3.677559,-5.209726 0.07926,-0.606825 0.02783,-1.797332 -0.101338,-2.3460914 C 17.464556,8.6111124 17.137354,7.8499112 16.662796,7.15398 14.386346,3.8155992 9.8068151,3.1318613 6.6661041,5.6614436 5.6154382,6.5076679 4.7799504,7.7717607 4.4121059,9.071742 4.2179723,9.7578205 4.1595091,10.19884 4.1601724,10.972215 c 9.042e-4,1.05435 0.1466257,1.780014 0.5470124,2.724012 0.3489705,0.822773 0.7623947,1.421568 1.4739646,2.134859 0.7744154,0.776287 1.6549128,1.324109 2.6688251,1.660471 0.3721287,0.123453 1.1173077,0.282634 1.4708605,0.314198 0.417987,0.03732 1.135488,0.02265 1.542426,-0.03154 z"
       id="path47"
       inkscape:connector-curvature="0"
       transform="translate(553.72253,583.11926)" />
    <path
       style="fill:#ffffff;stroke-width:0.04223274"
       d="M 9.8313014,15.446605 C 8.2655454,15.163101 7.0027279,13.991861 6.5749747,12.426423 6.4904771,12.117189 6.4779865,11.975679 6.480166,11.35231 6.4824688,10.693663 6.4922381,10.603169 6.5984264,10.256862 6.8430027,9.4592347 7.3388871,8.7139211 7.9506799,8.2244263 8.3766585,7.8836014 8.7075884,7.710044 9.6028787,7.3579251 10.219887,7.1152546 10.324498,7.0852498 10.346884,7.1445265 c 0.19178,0.5078202 2.781149,7.6027465 2.790576,7.6462385 0.01719,0.07933 -1.405133,0.572821 -1.899407,0.659016 -0.43544,0.07593 -0.976585,0.07471 -1.4067516,-0.0032 z m 1.5810496,-1.182493 c 0.135774,-0.04133 0.255639,-0.09803 0.266368,-0.125983 C 11.698132,14.087538 9.7264395,8.6409424 9.6630033,8.5699251 9.6445203,8.5492332 9.44764,8.6212469 9.2201915,8.7318941 8.0385236,9.3067419 7.358998,10.657055 7.6151674,11.921302 c 0.2414341,1.191527 1.0439602,2.059093 2.1913403,2.368936 0.3858293,0.104191 1.2224803,0.09058 1.6058433,-0.02613 z"
       id="path49"
       inkscape:connector-curvature="0"
       transform="translate(553.72253,583.11926)" />
    <path
       style="fill:#ffffff;stroke-width:0.04223274"
       d="m 12.326891,9.9044002 c 0,-0.018689 0.114028,-0.39025 0.253396,-0.8256908 0.139368,-0.4354408 0.253396,-0.799233 0.253396,-0.808427 0,-0.00919 -0.316097,-0.2554821 -0.702439,-0.5473069 L 11.428804,7.192385 h 0.865414 0.865414 l 0.247509,-0.8024221 c 0.13613,-0.4413322 0.25759,-0.8020778 0.269912,-0.8016569 0.01232,4.209e-4 0.137148,0.3567597 0.277394,0.7918639 l 0.254992,0.7910987 0.861875,0.021116 0.861876,0.021116 -0.699567,0.522793 -0.699567,0.522793 0.142515,0.4485601 c 0.07838,0.246708 0.192384,0.6060563 0.253333,0.7985516 0.06095,0.1924953 0.100538,0.3602703 0.08798,0.3728333 -0.01256,0.012563 -0.319624,-0.1999274 -0.682359,-0.4722007 L 13.676003,8.9117892 13.001447,9.425085 c -0.371006,0.2823128 -0.674556,0.4980044 -0.674556,0.4793152 z"
       id="path51"
       inkscape:connector-curvature="0"
       transform="translate(553.72253,583.11926)" />
  </g>
</svg>
